<svg width="57" height="60" viewBox="0 0 57 60" fill="none" xmlns="http://www.w3.org/2000/svg">
<path d="M35.2354 8.30702C35.1386 8.30702 35.0403 8.28751 34.946 8.24637C34.5827 8.08793 34.418 7.66782 34.578 7.30808L37.6399 0.425004C37.7375 0.205485 37.94 0.0496017 38.1788 0.00988346C38.4171 -0.0299772 38.6605 0.0523066 38.8248 0.228263L41.9442 3.56374C42.214 3.85216 42.1966 4.30245 41.9052 4.56966C41.6143 4.83672 41.1594 4.81964 40.8896 4.53108L38.5142 1.99081L35.8936 7.88193C35.775 8.14843 35.5117 8.30702 35.2354 8.30702Z" fill="#415A6B"/>
<path d="M50.0031 21.7194H7.01904C6.62215 21.7194 6.30029 21.4007 6.30029 21.0076V14.5587C6.30029 14.1657 6.62215 13.8469 7.01904 13.8469H50.0031C50.4001 13.8469 50.7218 14.1657 50.7218 14.5587V21.0076C50.7218 21.4007 50.4 21.7194 50.0031 21.7194ZM7.73779 20.2958H49.2843V15.2705H7.73779V20.2958Z" fill="#415A6B"/>
<path d="M30.4648 59.9999H0.505737V30.3308H30.4646H56.5162V59.9999H30.4648Z" fill="#415A6B"/>
<path d="M2.4593 33.0727H32.4182H56.5164V30.3308H30.4648H0.505737V59.9999H2.4593V33.0727Z" fill="#344C59"/>
<path d="M50.3697 1.22959C51.6994 2.54499 51.1991 4.53945 51.2723 7.09907C48.6878 7.02647 46.6753 7.52045 45.3469 6.20363C44.6123 5.4776 44.5793 4.3316 45.2736 3.64401C45.9002 3.02332 46.5471 3.0404 47.5247 3.38776C47.174 2.41972 47.1566 1.7791 47.7835 1.15841C48.4794 0.469393 49.6365 0.502136 50.3697 1.22959Z" fill="#EF3E5C"/>
<path d="M50.3697 1.22959C49.6364 0.502136 48.4794 0.469393 47.7837 1.15841C47.454 1.4847 47.304 1.81711 47.2853 2.1992C47.9707 1.83633 48.8654 1.9616 49.4713 2.56279C50.5592 3.63903 50.422 5.17024 50.3765 7.09338C50.667 7.0901 50.9656 7.09053 51.2723 7.09921C51.1992 4.53945 51.6994 2.54499 50.3697 1.22959Z" fill="#DD2C52"/>
<path d="M35.2617 5.28591C36.2804 6.2921 36.2818 7.92553 35.2656 8.93429C34.2497 9.94305 32.6011 9.94561 31.5825 8.93942C30.5639 7.93322 30.5605 6.29965 31.5766 5.29075C32.5925 4.28199 34.243 4.27971 35.2617 5.28591Z" fill="#415A6B"/>
<path d="M33.1807 9.46636C32.1621 8.46016 32.1588 6.82659 33.1748 5.81769C33.6778 5.31829 34.3363 5.06645 34.9968 5.06048C33.9745 4.28946 32.5088 4.36505 31.5766 5.29081C30.5605 6.29957 30.5639 7.93329 31.5825 8.93948C32.0969 9.44771 32.7721 9.69769 33.4455 9.69157C33.3538 9.62238 33.2645 9.54907 33.1807 9.46636Z" fill="#344C59"/>
<path d="M26.0759 3.64278C26.7717 4.3318 26.7385 5.4778 26.0041 6.20383C24.6758 7.52065 22.6619 7.02524 20.0773 7.09785C20.1507 4.53822 19.6518 2.54519 20.9814 1.22979C21.7147 0.502334 22.8717 0.469592 23.5661 1.15719C24.1927 1.77787 24.1756 2.41849 23.8248 3.38654C24.8023 3.03918 25.4492 3.0221 26.0759 3.64278Z" fill="#EF3E5C"/>
<path d="M21.9877 2.58619C22.5617 2.01661 23.395 1.87496 24.0631 2.16951C24.0386 1.79923 23.8873 1.4755 23.5661 1.15719C22.8717 0.469592 21.7146 0.502334 20.9814 1.22979C19.6518 2.54519 20.1507 4.53822 20.0773 7.09785C20.4221 7.08817 20.7565 7.08873 21.0806 7.09358C21.0349 5.18098 20.9038 3.65844 21.9877 2.58619Z" fill="#DD2C52"/>
<path d="M8.59481 1.50747C10.4607 3.3553 9.75933 6.15551 9.86268 9.74866C6.233 9.64616 3.40832 10.3394 1.54245 8.49162C0.5132 7.47233 0.4672 5.86225 1.4388 4.89847C2.32157 4.02581 3.22849 4.05143 4.6013 4.5383C4.10968 3.17877 4.0838 2.28048 4.96499 1.40782C5.93975 0.4412 7.56556 0.488179 8.59481 1.50747Z" fill="#EF3E5C"/>
<path d="M8.59457 1.50747C7.56532 0.488179 5.93952 0.4412 4.96489 1.40782C4.37135 1.99562 4.19051 2.59567 4.28524 3.33978C4.30824 3.31558 4.32952 3.29124 4.35396 3.26689C5.32858 2.30027 6.95439 2.34725 7.98364 3.36654C9.51227 4.88039 9.31778 7.03386 9.25453 9.73855C9.45477 9.73983 9.65717 9.74282 9.86245 9.74866C9.75909 6.15551 10.4604 3.3553 8.59457 1.50747Z" fill="#DD2C52"/>
<path d="M56.5164 20.0112V30.3309H30.4648H0.505737V20.0112H7.01904H50.0031H56.5164Z" fill="#F78F4B"/>
<path d="M2.4593 22.0135H8.9726H51.9565H56.5164V20.0112H50.0031H7.01904H0.505737V30.3309H2.4593V22.0135Z" fill="#E2783D"/>
<path d="M42.1874 53.5512C47.2231 53.5512 51.3054 49.5084 51.3054 44.5213C51.3054 39.5343 47.2231 35.4915 42.1874 35.4915C37.1516 35.4915 33.0693 39.5343 33.0693 44.5213C33.0693 49.5084 37.1516 53.5512 42.1874 53.5512Z" fill="#EF3E5C"/>
<path d="M33.9326 46.372C33.9326 41.3853 38.015 37.3421 43.0507 37.3421C46.351 37.3421 49.2416 39.0789 50.8421 41.6798C49.6392 38.0857 46.2201 35.4915 42.1875 35.4915C37.152 35.4915 33.0693 39.5345 33.0693 44.5213C33.0693 46.2399 33.5543 47.8461 34.396 49.2136C34.0967 48.3199 33.9326 47.3651 33.9326 46.372Z" fill="#DD2C52"/>
<path d="M26.5575 49.6804H23.9528V52.2614H26.5575V49.6804Z" fill="white"/>
<path d="M26.5575 45.811H23.9528V48.3906H26.5575V45.811Z" fill="white"/>
<path d="M26.5575 41.9417H23.9528V44.5212H26.5575V41.9417Z" fill="white"/>
<path d="M26.5575 38.071H23.9528V40.6506H26.5575V38.071Z" fill="white"/>
<path d="M22.6489 49.6804H17.4395V52.2614H22.6489V49.6804Z" fill="white"/>
<path d="M22.6489 45.811H20.0442V48.3906H22.6489V45.811Z" fill="white"/>
<path d="M22.6489 41.9417H17.4395V44.5212H22.6489V41.9417Z" fill="white"/>
<path d="M22.6489 38.071H20.0442V40.6506H22.6489V38.071Z" fill="white"/>
<path d="M18.7418 45.811H16.1371V48.3906H18.7418V45.811Z" fill="white"/>
<path d="M18.7418 38.071H16.1371V40.6506H18.7418V38.071Z" fill="white"/>
<path d="M16.1371 49.6804H13.5325V52.2614H16.1371V49.6804Z" fill="white"/>
<path d="M16.1371 41.9417H13.5325V44.5212H16.1371V41.9417Z" fill="white"/>
<path d="M14.8347 45.811H9.62378V48.3906H14.8347V45.811Z" fill="white"/>
<path d="M14.8347 38.071H9.62378V40.6506H14.8347V38.071Z" fill="white"/>
<path d="M12.2285 49.6804H9.62378V52.2614H12.2285V49.6804Z" fill="white"/>
<path d="M12.2285 41.9417H9.62378V44.5212H12.2285V41.9417Z" fill="white"/>
<path d="M8.32142 49.6804H5.71667V52.2614H8.32142V49.6804Z" fill="white"/>
<path d="M8.32142 45.811H5.71667V48.3906H8.32142V45.811Z" fill="white"/>
<path d="M8.32142 41.9417H5.71667V44.5212H8.32142V41.9417Z" fill="white"/>
<path d="M8.32142 38.071H5.71667V40.6506H8.32142V38.071Z" fill="white"/>
<path d="M51.3055 25.8836H5.71667C5.31964 25.8836 4.99792 25.5648 4.99792 25.1718C4.99792 24.7787 5.31964 24.46 5.71667 24.46H51.3055C51.7025 24.46 52.0242 24.7787 52.0242 25.1718C52.0242 25.5648 51.7025 25.8836 51.3055 25.8836Z" fill="#E2783D"/>
<path d="M44.7936 27.1736C44.3965 27.1736 44.0748 26.8548 44.0748 26.4618V23.8822C44.0748 23.4892 44.3965 23.1704 44.7936 23.1704C45.1906 23.1704 45.5123 23.4892 45.5123 23.8822V26.4618C45.5123 26.8548 45.1906 27.1736 44.7936 27.1736Z" fill="#E2783D"/>
<path d="M50.0031 42.6536H38.2803C37.8832 42.6536 37.5615 42.335 37.5615 41.9418C37.5615 41.5486 37.8832 41.23 38.2803 41.23H50.0031C50.4001 41.23 50.7218 41.5486 50.7218 41.9418C50.7218 42.335 50.4 42.6536 50.0031 42.6536Z" fill="white"/>
<path d="M50.8656 46.6084H35.2357C34.8387 46.6084 34.517 46.2898 34.517 45.8966C34.517 45.5034 34.8387 45.1848 35.2357 45.1848H50.8655C51.2625 45.1848 51.5842 45.5034 51.5842 45.8966C51.5842 46.2898 51.2625 46.6084 50.8656 46.6084Z" fill="white"/>
<path d="M44.7936 53.5512C44.3965 53.5512 44.0748 53.2106 44.0748 52.7907V36.2519C44.0748 35.832 44.3965 35.4915 44.7936 35.4915C45.1906 35.4915 45.5123 35.832 45.5123 36.2519V52.7907C45.5123 53.2106 45.1906 53.5512 44.7936 53.5512Z" fill="white"/>
<path d="M30.4647 39.0592C30.0677 39.0592 29.746 38.7406 29.746 38.3474V31.8971C29.746 31.5039 30.0677 31.1853 30.4647 31.1853C30.8616 31.1853 31.1833 31.5039 31.1833 31.8971V38.3474C31.1833 38.7406 30.8615 39.0592 30.4647 39.0592Z" fill="#344C59"/>
<path d="M42.1874 54.263C36.7634 54.263 32.3505 49.8928 32.3505 44.5212C32.3505 39.1495 36.7633 34.7795 42.1874 34.7795C47.6115 34.7795 52.0242 39.1495 52.0242 44.5212C52.0242 49.8928 47.6115 54.263 42.1874 54.263ZM42.1874 36.2031C37.5559 36.2031 33.788 39.9347 33.788 44.5212C33.788 49.1079 37.5559 52.8394 42.1874 52.8394C46.8187 52.8394 50.5867 49.1079 50.5867 44.5212C50.5867 39.9347 46.8187 36.2031 42.1874 36.2031Z" fill="white"/>
</svg>
