<svg width="31" height="19" viewBox="0 0 31 19" fill="none" xmlns="http://www.w3.org/2000/svg">
<path fill-rule="evenodd" clip-rule="evenodd" d="M15.9502 5.52804L23.9548 0.336841C24.6476 -0.11228 25.771 -0.11228 26.4638 0.336841C27.1566 0.786192 27.1566 1.5146 26.4638 1.96393L17.6825 7.65878C17.2005 7.97155 16.5101 8.06672 15.9013 7.94427C15.321 8.03795 14.6815 7.9377 14.2279 7.64353L5.50544 1.98672C4.81718 1.54002 4.81718 0.81669 5.50544 0.370444C6.19357 -0.0760093 7.30934 -0.0760093 7.9975 0.370444L15.9502 5.52804ZM15.9323 15.5984L26.8475 8.4606C27.7922 7.84275 29.324 7.84275 30.2687 8.4606C31.2136 9.07824 31.2136 10.08 30.2687 10.6978L18.2943 18.5284C17.6371 18.9582 16.6957 19.089 15.8655 18.9208C15.0741 19.0495 14.2021 18.9117 13.5835 18.5073L1.68918 10.7288C0.750743 10.1154 0.750743 9.12047 1.68918 8.5066C2.62758 7.89296 4.14908 7.89296 5.08748 8.5066L15.9323 15.5984Z" fill="white"/>
</svg>
