<svg width="60" height="49" viewBox="0 0 60 49" fill="none" xmlns="http://www.w3.org/2000/svg">
<g clip-path="url(#clip0_235903_64)">
<path d="M0 45.9884H60V0.000244141H0V45.9884Z" fill="#A3A3A3"/>
<path d="M58.8075 44.8231H1.04248V1.16748H58.8075V44.8231Z" fill="#AFAFAF"/>
<path d="M56.7544 41.8821H2.77783V9.34985H56.7544V41.8821Z" fill="#CFD8E5"/>
<path d="M55.9659 41.0844H3.40869V10.1497H55.9659V41.0844Z" fill="#E2E9F2"/>
<path d="M56.7543 5.15939C56.7543 6.83655 55.3949 8.19499 53.7168 8.19499C52.0415 8.19499 50.6812 6.83655 50.6812 5.15939C50.6812 3.48223 52.0415 2.1228 53.7168 2.1228C55.3949 2.1228 56.7543 3.48223 56.7543 5.15939Z" fill="#A3A3A3"/>
<path d="M56.3249 5.15937C56.3249 6.59937 55.1577 7.76656 53.7168 7.76656C52.2768 7.76656 51.1096 6.59937 51.1096 5.15937C51.1096 3.71937 52.2768 2.55127 53.7168 2.55127C55.1577 2.55127 56.3249 3.71937 56.3249 5.15937Z" fill="#FF7031"/>
<path d="M48.8634 5.15939C48.8634 6.83655 47.5031 8.19499 45.8268 8.19499C44.1496 8.19499 42.7893 6.83655 42.7893 5.15939C42.7893 3.48223 44.1496 2.1228 45.8268 2.1228C47.5031 2.1228 48.8634 3.48223 48.8634 5.15939Z" fill="#A3A3A3"/>
<path d="M48.4351 5.15937C48.4351 6.59937 47.266 7.76656 45.8269 7.76656C44.3869 7.76656 43.2197 6.59937 43.2197 5.15937C43.2197 3.71937 44.3869 2.55127 45.8269 2.55127C47.266 2.55127 48.4351 3.71937 48.4351 5.15937Z" fill="#E2E9F2"/>
<path d="M40.859 5.15939C40.859 6.83655 39.4977 8.19499 37.8224 8.19499C36.1452 8.19499 34.7849 6.83655 34.7849 5.15939C34.7849 3.48223 36.1452 2.1228 37.8224 2.1228C39.4977 2.1228 40.859 3.48223 40.859 5.15939Z" fill="#A3A3A3"/>
<path d="M40.4296 5.15937C40.4296 6.59937 39.2615 7.76656 37.8225 7.76656C36.3815 7.76656 35.2144 6.59937 35.2144 5.15937C35.2144 3.71937 36.3815 2.55127 37.8225 2.55127C39.2615 2.55127 40.4296 3.71937 40.4296 5.15937Z" fill="#E2E9F2"/>
<path d="M0 45.9884H60V0.000244141H0V45.9884Z" fill="url(#paint0_linear_235903_64)"/>
<path d="M5.70093 0L39.5606 45.9882H53.6728L19.8131 0H5.70093Z" fill="white" fill-opacity="0.203922"/>
<path d="M26.6948 0L59.9995 45.2353V35.6512L33.7514 0H26.6948Z" fill="white" fill-opacity="0.203922"/>
<path d="M25.6274 19.5695H32.4497V12.7463H25.6274V19.5695Z" fill="url(#paint1_linear_235903_64)"/>
<path d="M25.6274 48.9086H32.4497V42.0845H25.6274V48.9086Z" fill="url(#paint2_linear_235903_64)"/>
<path d="M40.1494 34.2387H46.9725V27.4155H40.1494V34.2387Z" fill="url(#paint3_linear_235903_64)"/>
<path d="M10.8103 34.2387H17.6343V27.4155H10.8103V34.2387Z" fill="url(#paint4_linear_235903_64)"/>
<path d="M34.4897 20.5577L39.3151 25.3821L44.1423 20.5577L39.316 15.7324L34.4897 20.5577Z" fill="url(#paint5_linear_235903_64)"/>
<path d="M13.7456 41.3038L18.5709 46.13L23.3953 41.3038L18.5709 36.4775L13.7456 41.3038Z" fill="url(#paint6_linear_235903_64)"/>
<path d="M34.3875 41.2005L39.2127 46.024L44.039 41.2005L39.2127 36.3743L34.3875 41.2005Z" fill="url(#paint7_linear_235903_64)"/>
<path d="M13.6416 20.4545L18.4669 25.2788L23.2913 20.4545L18.4669 15.6292L13.6416 20.4545Z" fill="url(#paint8_linear_235903_64)"/>
<path d="M14.2209 30.8261C14.2209 38.9289 20.79 45.4971 28.8919 45.4971C36.9938 45.4971 43.5619 38.9289 43.5619 30.8261C43.5619 22.7252 36.9938 16.158 28.8919 16.158C20.79 16.158 14.2209 22.7252 14.2209 30.8261ZM21.2119 30.6798C21.2119 26.4386 24.6497 23.0008 28.8919 23.0008C33.1341 23.0008 36.5719 26.4386 36.5719 30.6798C36.5719 34.9221 33.1341 38.3598 28.8919 38.3598C24.6497 38.3598 21.2119 34.9221 21.2119 30.6798Z" fill="url(#paint9_linear_235903_64)"/>
<path d="M19.4353 30.8262C19.4353 36.049 23.67 40.2828 28.8919 40.2828C34.1137 40.2828 38.3475 36.049 38.3475 30.8262C38.3475 25.6053 34.1137 21.3716 28.8919 21.3716C23.67 21.3716 19.4353 25.6053 19.4353 30.8262ZM21.3581 30.8262C21.3581 26.585 24.7969 23.1472 29.0382 23.1472C33.2794 23.1472 36.7181 26.585 36.7181 30.8262C36.7181 35.0685 33.2794 38.5063 29.0382 38.5063C24.7969 38.5063 21.3581 35.0685 21.3581 30.8262Z" fill="url(#paint10_linear_235903_64)"/>
<path d="M26.2866 30.828C26.2866 32.3458 27.5195 33.5786 29.0382 33.5786C30.557 33.5786 31.7889 32.3458 31.7889 30.828C31.7889 29.3073 30.557 28.0754 29.0382 28.0754C27.5195 28.0754 26.2866 29.3073 26.2866 30.828Z" fill="url(#paint11_linear_235903_64)"/>
<path d="M27.8352 30.4371C27.8352 29.509 28.5852 28.7581 29.5115 28.7581C30.4387 28.7581 31.1914 29.509 31.1914 30.4371C31.1914 31.3615 30.4387 32.1153 29.5115 32.1153C28.5852 32.1153 27.8352 31.3615 27.8352 30.4371Z" fill="url(#paint12_linear_235903_64)"/>
</g>
<defs>
<linearGradient id="paint0_linear_235903_64" x1="29.995" y1="89.8413" x2="29.995" y2="1.30005" gradientUnits="userSpaceOnUse">
<stop stop-color="white" stop-opacity="0.101961"/>
<stop offset="0.13" stop-color="white" stop-opacity="0.0784314"/>
<stop offset="1" stop-color="white" stop-opacity="0.0509804"/>
</linearGradient>
<linearGradient id="paint1_linear_235903_64" x1="29.0382" y1="19.9181" x2="29.0382" y2="10.2813" gradientUnits="userSpaceOnUse">
<stop stop-color="#8BC6FF"/>
<stop offset="1" stop-color="#008BFF"/>
</linearGradient>
<linearGradient id="paint2_linear_235903_64" x1="29.0382" y1="50.8232" x2="29.0382" y2="37.1744" gradientUnits="userSpaceOnUse">
<stop stop-color="#8BC6FF"/>
<stop offset="1" stop-color="#008BFF"/>
</linearGradient>
<linearGradient id="paint3_linear_235903_64" x1="30.7864" y1="30.8281" x2="48.8694" y2="30.8281" gradientUnits="userSpaceOnUse">
<stop stop-color="#8BC6FF"/>
<stop offset="1" stop-color="#008BFF"/>
</linearGradient>
<linearGradient id="paint4_linear_235903_64" x1="10.2576" y1="30.8272" x2="43.3882" y2="30.8272" gradientUnits="userSpaceOnUse">
<stop stop-color="#8BC6FF"/>
<stop offset="1" stop-color="#008BFF"/>
</linearGradient>
<linearGradient id="paint5_linear_235903_64" x1="45.5038" y1="-6.19331" x2="54.133" y2="-14.825" gradientUnits="userSpaceOnUse">
<stop stop-color="#8BC6FF"/>
<stop offset="1" stop-color="#008BFF"/>
</linearGradient>
<linearGradient id="paint6_linear_235903_64" x1="45.7525" y1="18.3876" x2="63.1313" y2="1.01377" gradientUnits="userSpaceOnUse">
<stop stop-color="#8BC6FF"/>
<stop offset="1" stop-color="#008BFF"/>
</linearGradient>
<linearGradient id="paint7_linear_235903_64" x1="-5.77254" y1="36.7725" x2="12.0287" y2="54.5773" gradientUnits="userSpaceOnUse">
<stop stop-color="#8BC6FF"/>
<stop offset="1" stop-color="#008BFF"/>
</linearGradient>
<linearGradient id="paint8_linear_235903_64" x1="15.5928" y1="17.5776" x2="36.6547" y2="38.6394" gradientUnits="userSpaceOnUse">
<stop stop-color="#8BC6FF"/>
<stop offset="1" stop-color="#008BFF"/>
</linearGradient>
<linearGradient id="paint9_linear_235903_64" x1="14.2218" y1="30.8272" x2="43.5618" y2="30.8272" gradientUnits="userSpaceOnUse">
<stop stop-color="#8BC6FF"/>
<stop offset="1" stop-color="#008BFF"/>
</linearGradient>
<linearGradient id="paint10_linear_235903_64" x1="36.5992" y1="38.3099" x2="18.3965" y2="20.6357" gradientUnits="userSpaceOnUse">
<stop stop-color="#8BC6FF"/>
<stop offset="1" stop-color="#0079FF"/>
</linearGradient>
<linearGradient id="paint11_linear_235903_64" x1="32.0289" y1="27.7454" x2="24.3619" y2="35.6398" gradientUnits="userSpaceOnUse">
<stop stop-color="#8BC6FF"/>
<stop offset="1" stop-color="#0079FF"/>
</linearGradient>
<linearGradient id="paint12_linear_235903_64" x1="27.8351" y1="30.4372" x2="31.1919" y2="30.4372" gradientUnits="userSpaceOnUse">
<stop stop-color="#8BC6FF" stop-opacity="0.301961"/>
<stop offset="1" stop-color="#8FD4FF" stop-opacity="0.301961"/>
</linearGradient>
<clipPath id="clip0_235903_64">
<rect width="60" height="48.9087" fill="white"/>
</clipPath>
</defs>
</svg>
